<mxfile host="app.diagrams.net" modified="2023-05-21T08:14:51.072Z" agent="Mozilla/5.0 (Windows NT 10.0; Win64; x64) AppleWebKit/537.36 (KHTML, like Gecko) Chrome/113.0.0.0 Safari/537.36" etag="P7_MGs9v8oU9MfMBI8VL" version="21.2.9" type="github">
  <diagram name="Page-1" id="6PhnfSOoUw57CcjGiwAI">
    <mxGraphModel dx="1434" dy="788" grid="1" gridSize="10" guides="1" tooltips="1" connect="1" arrows="1" fold="1" page="1" pageScale="1" pageWidth="850" pageHeight="1100" math="0" shadow="0">
      <root>
        <mxCell id="0" />
        <mxCell id="1" parent="0" />
        <mxCell id="nFzPuIVkLuBjwXfmh1af-1" value="Assets" style="childLayout=tableLayout;recursiveResize=0;strokeColor=#98bf21;fillColor=#A7C942;shadow=1;" vertex="1" parent="1">
          <mxGeometry x="130" y="150" width="500" height="129" as="geometry" />
        </mxCell>
        <mxCell id="nFzPuIVkLuBjwXfmh1af-2" style="shape=tableRow;horizontal=0;startSize=0;swimlaneHead=0;swimlaneBody=0;top=0;left=0;bottom=0;right=0;dropTarget=0;collapsible=0;recursiveResize=0;expand=0;fontStyle=0;strokeColor=inherit;fillColor=#ffffff;" vertex="1" parent="nFzPuIVkLuBjwXfmh1af-1">
          <mxGeometry width="500" height="32" as="geometry" />
        </mxCell>
        <mxCell id="nFzPuIVkLuBjwXfmh1af-3" value="ID" style="connectable=0;recursiveResize=0;strokeColor=inherit;fillColor=#A7C942;align=center;fontStyle=1;fontColor=#FFFFFF;html=1;" vertex="1" parent="nFzPuIVkLuBjwXfmh1af-2">
          <mxGeometry width="69" height="32" as="geometry">
            <mxRectangle width="69" height="32" as="alternateBounds" />
          </mxGeometry>
        </mxCell>
        <mxCell id="nFzPuIVkLuBjwXfmh1af-4" value="Payment Name" style="connectable=0;recursiveResize=0;strokeColor=inherit;fillColor=#A7C942;align=center;fontStyle=1;fontColor=#FFFFFF;html=1;" vertex="1" parent="nFzPuIVkLuBjwXfmh1af-2">
          <mxGeometry x="69" width="69" height="32" as="geometry">
            <mxRectangle width="69" height="32" as="alternateBounds" />
          </mxGeometry>
        </mxCell>
        <mxCell id="nFzPuIVkLuBjwXfmh1af-5" value="Start Date" style="connectable=0;recursiveResize=0;strokeColor=inherit;fillColor=#A7C942;align=center;fontStyle=1;fontColor=#FFFFFF;html=1;" vertex="1" parent="nFzPuIVkLuBjwXfmh1af-2">
          <mxGeometry x="138" width="68" height="32" as="geometry">
            <mxRectangle width="68" height="32" as="alternateBounds" />
          </mxGeometry>
        </mxCell>
        <mxCell id="nFzPuIVkLuBjwXfmh1af-22" value="End Date" style="connectable=0;recursiveResize=0;strokeColor=inherit;fillColor=#A7C942;align=center;fontStyle=1;fontColor=#FFFFFF;html=1;" vertex="1" parent="nFzPuIVkLuBjwXfmh1af-2">
          <mxGeometry x="206" width="67" height="32" as="geometry">
            <mxRectangle width="67" height="32" as="alternateBounds" />
          </mxGeometry>
        </mxCell>
        <mxCell id="nFzPuIVkLuBjwXfmh1af-37" value="Total Payments" style="connectable=0;recursiveResize=0;strokeColor=inherit;fillColor=#A7C942;align=center;fontStyle=1;fontColor=#FFFFFF;html=1;" vertex="1" parent="nFzPuIVkLuBjwXfmh1af-2">
          <mxGeometry x="273" width="68" height="32" as="geometry">
            <mxRectangle width="68" height="32" as="alternateBounds" />
          </mxGeometry>
        </mxCell>
        <mxCell id="nFzPuIVkLuBjwXfmh1af-42" value="School Parents Payment" style="connectable=0;recursiveResize=0;strokeColor=inherit;fillColor=#A7C942;align=center;fontStyle=1;fontColor=#FFFFFF;html=1;" vertex="1" parent="nFzPuIVkLuBjwXfmh1af-2">
          <mxGeometry x="341" width="67" height="32" as="geometry">
            <mxRectangle width="67" height="32" as="alternateBounds" />
          </mxGeometry>
        </mxCell>
        <mxCell id="nFzPuIVkLuBjwXfmh1af-32" value="Active" style="connectable=0;recursiveResize=0;strokeColor=inherit;fillColor=#A7C942;align=center;fontStyle=1;fontColor=#FFFFFF;html=1;" vertex="1" parent="nFzPuIVkLuBjwXfmh1af-2">
          <mxGeometry x="408" width="92" height="32" as="geometry">
            <mxRectangle width="92" height="32" as="alternateBounds" />
          </mxGeometry>
        </mxCell>
        <mxCell id="nFzPuIVkLuBjwXfmh1af-6" value="" style="shape=tableRow;horizontal=0;startSize=0;swimlaneHead=0;swimlaneBody=0;top=0;left=0;bottom=0;right=0;dropTarget=0;collapsible=0;recursiveResize=0;expand=0;fontStyle=0;strokeColor=inherit;fillColor=#ffffff;" vertex="1" parent="nFzPuIVkLuBjwXfmh1af-1">
          <mxGeometry y="32" width="500" height="25" as="geometry" />
        </mxCell>
        <mxCell id="nFzPuIVkLuBjwXfmh1af-7" value="Value 1" style="connectable=0;recursiveResize=0;strokeColor=inherit;fillColor=inherit;align=center;whiteSpace=wrap;html=1;" vertex="1" parent="nFzPuIVkLuBjwXfmh1af-6">
          <mxGeometry width="69" height="25" as="geometry">
            <mxRectangle width="69" height="25" as="alternateBounds" />
          </mxGeometry>
        </mxCell>
        <mxCell id="nFzPuIVkLuBjwXfmh1af-8" value="Value 2" style="connectable=0;recursiveResize=0;strokeColor=inherit;fillColor=inherit;align=center;whiteSpace=wrap;html=1;" vertex="1" parent="nFzPuIVkLuBjwXfmh1af-6">
          <mxGeometry x="69" width="69" height="25" as="geometry">
            <mxRectangle width="69" height="25" as="alternateBounds" />
          </mxGeometry>
        </mxCell>
        <mxCell id="nFzPuIVkLuBjwXfmh1af-9" value="Value 3" style="connectable=0;recursiveResize=0;strokeColor=inherit;fillColor=inherit;align=center;whiteSpace=wrap;html=1;" vertex="1" parent="nFzPuIVkLuBjwXfmh1af-6">
          <mxGeometry x="138" width="68" height="25" as="geometry">
            <mxRectangle width="68" height="25" as="alternateBounds" />
          </mxGeometry>
        </mxCell>
        <mxCell id="nFzPuIVkLuBjwXfmh1af-23" style="connectable=0;recursiveResize=0;strokeColor=inherit;fillColor=inherit;align=center;whiteSpace=wrap;html=1;" vertex="1" parent="nFzPuIVkLuBjwXfmh1af-6">
          <mxGeometry x="206" width="67" height="25" as="geometry">
            <mxRectangle width="67" height="25" as="alternateBounds" />
          </mxGeometry>
        </mxCell>
        <mxCell id="nFzPuIVkLuBjwXfmh1af-38" style="connectable=0;recursiveResize=0;strokeColor=inherit;fillColor=inherit;align=center;whiteSpace=wrap;html=1;" vertex="1" parent="nFzPuIVkLuBjwXfmh1af-6">
          <mxGeometry x="273" width="68" height="25" as="geometry">
            <mxRectangle width="68" height="25" as="alternateBounds" />
          </mxGeometry>
        </mxCell>
        <mxCell id="nFzPuIVkLuBjwXfmh1af-43" style="connectable=0;recursiveResize=0;strokeColor=inherit;fillColor=inherit;align=center;whiteSpace=wrap;html=1;" vertex="1" parent="nFzPuIVkLuBjwXfmh1af-6">
          <mxGeometry x="341" width="67" height="25" as="geometry">
            <mxRectangle width="67" height="25" as="alternateBounds" />
          </mxGeometry>
        </mxCell>
        <mxCell id="nFzPuIVkLuBjwXfmh1af-33" style="connectable=0;recursiveResize=0;strokeColor=inherit;fillColor=inherit;align=center;whiteSpace=wrap;html=1;" vertex="1" parent="nFzPuIVkLuBjwXfmh1af-6">
          <mxGeometry x="408" width="92" height="25" as="geometry">
            <mxRectangle width="92" height="25" as="alternateBounds" />
          </mxGeometry>
        </mxCell>
        <mxCell id="nFzPuIVkLuBjwXfmh1af-10" value="" style="shape=tableRow;horizontal=0;startSize=0;swimlaneHead=0;swimlaneBody=0;top=0;left=0;bottom=0;right=0;dropTarget=0;collapsible=0;recursiveResize=0;expand=0;fontStyle=1;strokeColor=inherit;fillColor=#EAF2D3;" vertex="1" parent="nFzPuIVkLuBjwXfmh1af-1">
          <mxGeometry y="57" width="500" height="23" as="geometry" />
        </mxCell>
        <mxCell id="nFzPuIVkLuBjwXfmh1af-11" value="Value 4" style="connectable=0;recursiveResize=0;strokeColor=inherit;fillColor=inherit;whiteSpace=wrap;html=1;" vertex="1" parent="nFzPuIVkLuBjwXfmh1af-10">
          <mxGeometry width="69" height="23" as="geometry">
            <mxRectangle width="69" height="23" as="alternateBounds" />
          </mxGeometry>
        </mxCell>
        <mxCell id="nFzPuIVkLuBjwXfmh1af-12" value="Value 5" style="connectable=0;recursiveResize=0;strokeColor=inherit;fillColor=inherit;whiteSpace=wrap;html=1;" vertex="1" parent="nFzPuIVkLuBjwXfmh1af-10">
          <mxGeometry x="69" width="69" height="23" as="geometry">
            <mxRectangle width="69" height="23" as="alternateBounds" />
          </mxGeometry>
        </mxCell>
        <mxCell id="nFzPuIVkLuBjwXfmh1af-13" value="Value 6" style="connectable=0;recursiveResize=0;strokeColor=inherit;fillColor=inherit;whiteSpace=wrap;html=1;" vertex="1" parent="nFzPuIVkLuBjwXfmh1af-10">
          <mxGeometry x="138" width="68" height="23" as="geometry">
            <mxRectangle width="68" height="23" as="alternateBounds" />
          </mxGeometry>
        </mxCell>
        <mxCell id="nFzPuIVkLuBjwXfmh1af-24" style="connectable=0;recursiveResize=0;strokeColor=inherit;fillColor=inherit;whiteSpace=wrap;html=1;" vertex="1" parent="nFzPuIVkLuBjwXfmh1af-10">
          <mxGeometry x="206" width="67" height="23" as="geometry">
            <mxRectangle width="67" height="23" as="alternateBounds" />
          </mxGeometry>
        </mxCell>
        <mxCell id="nFzPuIVkLuBjwXfmh1af-39" style="connectable=0;recursiveResize=0;strokeColor=inherit;fillColor=inherit;whiteSpace=wrap;html=1;" vertex="1" parent="nFzPuIVkLuBjwXfmh1af-10">
          <mxGeometry x="273" width="68" height="23" as="geometry">
            <mxRectangle width="68" height="23" as="alternateBounds" />
          </mxGeometry>
        </mxCell>
        <mxCell id="nFzPuIVkLuBjwXfmh1af-44" style="connectable=0;recursiveResize=0;strokeColor=inherit;fillColor=inherit;whiteSpace=wrap;html=1;" vertex="1" parent="nFzPuIVkLuBjwXfmh1af-10">
          <mxGeometry x="341" width="67" height="23" as="geometry">
            <mxRectangle width="67" height="23" as="alternateBounds" />
          </mxGeometry>
        </mxCell>
        <mxCell id="nFzPuIVkLuBjwXfmh1af-34" style="connectable=0;recursiveResize=0;strokeColor=inherit;fillColor=inherit;whiteSpace=wrap;html=1;" vertex="1" parent="nFzPuIVkLuBjwXfmh1af-10">
          <mxGeometry x="408" width="92" height="23" as="geometry">
            <mxRectangle width="92" height="23" as="alternateBounds" />
          </mxGeometry>
        </mxCell>
        <mxCell id="nFzPuIVkLuBjwXfmh1af-14" value="" style="shape=tableRow;horizontal=0;startSize=0;swimlaneHead=0;swimlaneBody=0;top=0;left=0;bottom=0;right=0;dropTarget=0;collapsible=0;recursiveResize=0;expand=0;fontStyle=0;strokeColor=inherit;fillColor=#ffffff;" vertex="1" parent="nFzPuIVkLuBjwXfmh1af-1">
          <mxGeometry y="80" width="500" height="25" as="geometry" />
        </mxCell>
        <mxCell id="nFzPuIVkLuBjwXfmh1af-15" value="Value 7" style="connectable=0;recursiveResize=0;strokeColor=inherit;fillColor=inherit;fontStyle=0;align=center;whiteSpace=wrap;html=1;" vertex="1" parent="nFzPuIVkLuBjwXfmh1af-14">
          <mxGeometry width="69" height="25" as="geometry">
            <mxRectangle width="69" height="25" as="alternateBounds" />
          </mxGeometry>
        </mxCell>
        <mxCell id="nFzPuIVkLuBjwXfmh1af-16" value="Value 8" style="connectable=0;recursiveResize=0;strokeColor=inherit;fillColor=inherit;fontStyle=0;align=center;whiteSpace=wrap;html=1;" vertex="1" parent="nFzPuIVkLuBjwXfmh1af-14">
          <mxGeometry x="69" width="69" height="25" as="geometry">
            <mxRectangle width="69" height="25" as="alternateBounds" />
          </mxGeometry>
        </mxCell>
        <mxCell id="nFzPuIVkLuBjwXfmh1af-17" value="Value 9" style="connectable=0;recursiveResize=0;strokeColor=inherit;fillColor=inherit;fontStyle=0;align=center;whiteSpace=wrap;html=1;" vertex="1" parent="nFzPuIVkLuBjwXfmh1af-14">
          <mxGeometry x="138" width="68" height="25" as="geometry">
            <mxRectangle width="68" height="25" as="alternateBounds" />
          </mxGeometry>
        </mxCell>
        <mxCell id="nFzPuIVkLuBjwXfmh1af-25" style="connectable=0;recursiveResize=0;strokeColor=inherit;fillColor=inherit;fontStyle=0;align=center;whiteSpace=wrap;html=1;" vertex="1" parent="nFzPuIVkLuBjwXfmh1af-14">
          <mxGeometry x="206" width="67" height="25" as="geometry">
            <mxRectangle width="67" height="25" as="alternateBounds" />
          </mxGeometry>
        </mxCell>
        <mxCell id="nFzPuIVkLuBjwXfmh1af-40" style="connectable=0;recursiveResize=0;strokeColor=inherit;fillColor=inherit;fontStyle=0;align=center;whiteSpace=wrap;html=1;" vertex="1" parent="nFzPuIVkLuBjwXfmh1af-14">
          <mxGeometry x="273" width="68" height="25" as="geometry">
            <mxRectangle width="68" height="25" as="alternateBounds" />
          </mxGeometry>
        </mxCell>
        <mxCell id="nFzPuIVkLuBjwXfmh1af-45" style="connectable=0;recursiveResize=0;strokeColor=inherit;fillColor=inherit;fontStyle=0;align=center;whiteSpace=wrap;html=1;" vertex="1" parent="nFzPuIVkLuBjwXfmh1af-14">
          <mxGeometry x="341" width="67" height="25" as="geometry">
            <mxRectangle width="67" height="25" as="alternateBounds" />
          </mxGeometry>
        </mxCell>
        <mxCell id="nFzPuIVkLuBjwXfmh1af-35" style="connectable=0;recursiveResize=0;strokeColor=inherit;fillColor=inherit;fontStyle=0;align=center;whiteSpace=wrap;html=1;" vertex="1" parent="nFzPuIVkLuBjwXfmh1af-14">
          <mxGeometry x="408" width="92" height="25" as="geometry">
            <mxRectangle width="92" height="25" as="alternateBounds" />
          </mxGeometry>
        </mxCell>
        <mxCell id="nFzPuIVkLuBjwXfmh1af-18" value="" style="shape=tableRow;horizontal=0;startSize=0;swimlaneHead=0;swimlaneBody=0;top=0;left=0;bottom=0;right=0;dropTarget=0;collapsible=0;recursiveResize=0;expand=0;fontStyle=1;strokeColor=inherit;fillColor=#EAF2D3;" vertex="1" parent="nFzPuIVkLuBjwXfmh1af-1">
          <mxGeometry y="105" width="500" height="24" as="geometry" />
        </mxCell>
        <mxCell id="nFzPuIVkLuBjwXfmh1af-19" value="Value 10" style="connectable=0;recursiveResize=0;strokeColor=inherit;fillColor=inherit;whiteSpace=wrap;html=1;" vertex="1" parent="nFzPuIVkLuBjwXfmh1af-18">
          <mxGeometry width="69" height="24" as="geometry">
            <mxRectangle width="69" height="24" as="alternateBounds" />
          </mxGeometry>
        </mxCell>
        <mxCell id="nFzPuIVkLuBjwXfmh1af-20" value="Value 11" style="connectable=0;recursiveResize=0;strokeColor=inherit;fillColor=inherit;whiteSpace=wrap;html=1;" vertex="1" parent="nFzPuIVkLuBjwXfmh1af-18">
          <mxGeometry x="69" width="69" height="24" as="geometry">
            <mxRectangle width="69" height="24" as="alternateBounds" />
          </mxGeometry>
        </mxCell>
        <mxCell id="nFzPuIVkLuBjwXfmh1af-21" value="Value 12" style="connectable=0;recursiveResize=0;strokeColor=inherit;fillColor=inherit;whiteSpace=wrap;html=1;" vertex="1" parent="nFzPuIVkLuBjwXfmh1af-18">
          <mxGeometry x="138" width="68" height="24" as="geometry">
            <mxRectangle width="68" height="24" as="alternateBounds" />
          </mxGeometry>
        </mxCell>
        <mxCell id="nFzPuIVkLuBjwXfmh1af-26" style="connectable=0;recursiveResize=0;strokeColor=inherit;fillColor=inherit;whiteSpace=wrap;html=1;" vertex="1" parent="nFzPuIVkLuBjwXfmh1af-18">
          <mxGeometry x="206" width="67" height="24" as="geometry">
            <mxRectangle width="67" height="24" as="alternateBounds" />
          </mxGeometry>
        </mxCell>
        <mxCell id="nFzPuIVkLuBjwXfmh1af-41" style="connectable=0;recursiveResize=0;strokeColor=inherit;fillColor=inherit;whiteSpace=wrap;html=1;" vertex="1" parent="nFzPuIVkLuBjwXfmh1af-18">
          <mxGeometry x="273" width="68" height="24" as="geometry">
            <mxRectangle width="68" height="24" as="alternateBounds" />
          </mxGeometry>
        </mxCell>
        <mxCell id="nFzPuIVkLuBjwXfmh1af-46" style="connectable=0;recursiveResize=0;strokeColor=inherit;fillColor=inherit;whiteSpace=wrap;html=1;" vertex="1" parent="nFzPuIVkLuBjwXfmh1af-18">
          <mxGeometry x="341" width="67" height="24" as="geometry">
            <mxRectangle width="67" height="24" as="alternateBounds" />
          </mxGeometry>
        </mxCell>
        <mxCell id="nFzPuIVkLuBjwXfmh1af-36" style="connectable=0;recursiveResize=0;strokeColor=inherit;fillColor=inherit;whiteSpace=wrap;html=1;" vertex="1" parent="nFzPuIVkLuBjwXfmh1af-18">
          <mxGeometry x="408" width="92" height="24" as="geometry">
            <mxRectangle width="92" height="24" as="alternateBounds" />
          </mxGeometry>
        </mxCell>
      </root>
    </mxGraphModel>
  </diagram>
</mxfile>
